HIERARCHY
ROOT SpineBase
{
  OFFSET 0.000000 0.000000 0.000000
  CHANNELS 6 Xposition Yposition Zposition Zrotation Xrotation Yrotation
  JOINT SpineMid
  {
    OFFSET 0.000000 27.107137 0.000000
    CHANNELS 3 Zrotation Xrotation Yrotation
    JOINT SpineShoulder
    {
      OFFSET -0.111467 20.201045 -0.695397
      CHANNELS 3 Zrotation Xrotation Yrotation
      JOINT Neck
      {
        OFFSET -0.057837 6.734172 -0.519979
        CHANNELS 3 Zrotation Xrotation Yrotation
        JOINT Head
        {
          OFFSET -3.005848 11.747628 1.742842
          CHANNELS 3 Zrotation Xrotation Yrotation
          End Site
          {
            OFFSET 0 0 0
          }
        }
      }
      JOINT ShoulderLeft
      {
        OFFSET -10.371989 -5.658910 4.557337
        CHANNELS 3 Zrotation Xrotation Yrotation
        JOINT ElbowLeft
        {
          OFFSET -0.564989 -26.489928 3.754254
          CHANNELS 3 Zrotation Xrotation Yrotation
          JOINT WristLeft
          {
            OFFSET -2.984722 -20.605846 -6.794605
            CHANNELS 3 Zrotation Xrotation Yrotation
            JOINT HandLeft
            {
              OFFSET 1.780550 -3.039946 -0.086246
              CHANNELS 3 Zrotation Xrotation Yrotation
              JOINT HandTipLeft
              {
                OFFSET 1.174228 -3.490692 -1.849721
                CHANNELS 3 Zrotation Xrotation Yrotation
                End Site
                {
                  OFFSET 0 0 0
                }
              }
              JOINT ThumbLeft
              {
                OFFSET -2.966589 -0.859504 -2.032355
                CHANNELS 3 Zrotation Xrotation Yrotation
                End Site
                {
                  OFFSET 0 0 0
                }
              }
            }
          }
        }
      }
      JOINT ShoulderRight
      {
        OFFSET 8.748946 -2.854597 -10.456837
        CHANNELS 3 Zrotation Xrotation Yrotation
        JOINT ElbowRight
        {
          OFFSET 6.413816 -23.749725 -3.418158
          CHANNELS 3 Zrotation Xrotation Yrotation
          JOINT WristRight
          {
            OFFSET -0.550657 -20.467585 -6.101712
            CHANNELS 3 Zrotation Xrotation Yrotation
            JOINT HandRight
            {
              OFFSET -2.184670 -5.072070 -0.740729
              CHANNELS 3 Zrotation Xrotation Yrotation
              JOINT HandTipRight
              {
                OFFSET -0.108851 -5.944967 0.100770
                CHANNELS 3 Zrotation Xrotation Yrotation
                End Site
                {
                  OFFSET 0 0 0
                }
              }
              JOINT ThumbRight
              {
                OFFSET -3.277225 -0.531738 -2.835136
                CHANNELS 3 Zrotation Xrotation Yrotation
                End Site
                {
                  OFFSET 0 0 0
                }
              }
            }
          }
        }
      }
    }
  }
  JOINT HipLeft
  {
    OFFSET -4.214616 0.471067 -0.477810
    CHANNELS 3 Zrotation Xrotation Yrotation
    JOINT KneeLeft
    {
      OFFSET 3.216863 -26.609129 0.685530
      CHANNELS 3 Zrotation Xrotation Yrotation
      JOINT AnkleLeft
      {
        OFFSET 10.435859 -36.377216 0.715032
        CHANNELS 3 Zrotation Xrotation Yrotation
        JOINT FootLeft
        {
          OFFSET -4.097386 -3.484281 -5.248252
          CHANNELS 3 Zrotation Xrotation Yrotation
          End Site
          {
            OFFSET 0 0 0
          }
        }
      }
    }
  }
  JOINT HipRight
  {
    OFFSET 3.707675 1.205568 -5.686357
    CHANNELS 3 Zrotation Xrotation Yrotation
    JOINT KneeRight
    {
      OFFSET 7.593375 -30.182129 -5.644885
      CHANNELS 3 Zrotation Xrotation Yrotation
      JOINT AnkleRight
      {
        OFFSET 4.524198 -31.410366 2.641791
        CHANNELS 3 Zrotation Xrotation Yrotation
        JOINT FootRight
        {
          OFFSET -4.227400 -6.201208 1.395001
          CHANNELS 3 Zrotation Xrotation Yrotation
          End Site
          {
            OFFSET 0 0 0
          }
        }
      }
    }
  }
}
MOTION
Frames: 14
Frame Time: 0.033333
44.287304 54.813702 377.071471 4.519897 -15.825055 -26.071650 0.364263 0.192174 26.720689 0.072749 -0.149897 0.157242 -10.899058 16.656656 3.189718 0.000000 0.000000 0.000000 164.590855 -6.058741 75.327848 -171.444141 17.391962 73.628584 -36.728215 12.499092 10.201148 7.126517 -17.138782 0.709128 0.000000 0.000000 0.000000 0.000000 0.000000 0.000000 -8.836033 -13.764764 -7.431426 -10.925041 45.375924 15.874187 50.342691 -19.015804 10.283271 -129.335113 27.375787 32.060428 0.000000 0.000000 0.000000 0.000000 0.000000 0.000000 -51.962655 7.803190 36.527343 18.794176 -32.306398 -8.142665 41.601661 21.637262 -55.731005 0.000000 0.000000 0.000000 -0.241671 18.997693 23.007231 -2.617876 5.983922 3.298527 89.384296 16.998303 -18.646668 0.000000 0.000000 0.000000
46.112834 55.835663 377.052938 4.996004 -16.275537 -26.369172 0.469310 0.315906 27.096982 0.092265 0.037214 0.173793 -19.524300 19.545115 7.844534 0.000000 0.000000 0.000000 175.649801 -1.625774 -48.232645 -173.954933 -3.539815 -49.442378 -37.145294 15.602018 13.855995 9.155186 -15.521893 -0.154948 0.000000 0.000000 0.000000 0.000000 0.000000 0.000000 -9.506803 -13.554297 -7.351610 -10.247796 45.285683 15.360881 42.137295 -19.758284 8.917842 -146.609940 13.384498 26.449965 0.000000 0.000000 0.000000 0.000000 0.000000 0.000000 -53.610380 7.732816 37.278029 16.271522 -32.334827 -9.331553 44.416663 21.089732 -55.789315 0.000000 0.000000 0.000000 0.193194 18.254699 22.789164 -4.165444 5.492395 3.520156 91.215918 17.079305 -18.116882 0.000000 0.000000 0.000000
47.815641 57.803447 376.784669 5.030347 -14.812725 -26.153141 0.007295 0.251702 26.875260 -0.154004 0.296212 0.167285 -28.112246 17.801768 11.631144 0.000000 0.000000 0.000000 172.257406 2.998521 -130.996227 177.578236 -13.246429 -133.650298 -41.878146 19.189899 20.675647 9.795077 -22.341391 -5.157178 0.000000 0.000000 0.000000 0.000000 0.000000 0.000000 -8.974368 -15.392444 -7.617956 -10.340903 45.310011 15.447838 32.799102 -22.486135 8.656292 -136.210431 12.154353 26.010650 0.000000 0.000000 0.000000 0.000000 0.000000 0.000000 -52.596327 6.420086 35.678354 12.814007 -29.607372 -9.923707 48.396034 19.087462 -56.718081 0.000000 0.000000 0.000000 2.676851 14.754611 21.604511 -6.452296 7.068570 4.156168 92.992641 18.230141 -34.405458 0.000000 0.000000 0.000000
49.556288 60.714728 376.344520 3.483370 -11.500193 -25.637048 -0.186723 0.360347 26.034017 -0.122142 0.421577 0.105749 -36.075908 12.322188 13.076219 0.000000 0.000000 0.000000 1.314419 62.844689 -3.804250 18.109371 -58.774997 14.285388 -48.668352 23.555661 30.001767 11.366697 -35.129916 -14.475786 0.000000 0.000000 0.000000 0.000000 0.000000 0.000000 -7.593298 -18.972723 -8.103534 -10.280822 45.263390 15.413453 4.979478 -20.009055 1.104801 -81.407049 28.441195 23.474035 0.000000 0.000000 0.000000 0.000000 0.000000 0.000000 -46.944093 7.445799 33.684491 4.871454 -27.641102 -11.574088 53.333751 17.140898 -58.256726 0.000000 0.000000 0.000000 6.269506 8.566959 20.476416 -6.832484 10.577782 4.916111 92.402585 19.641135 -47.958169 0.000000 0.000000 0.000000
51.916356 62.577733 376.149025 2.512844 -9.311047 -23.153304 -0.303458 0.384192 23.391553 -0.114527 0.518384 0.067924 -43.229010 9.156072 14.337521 0.000000 0.000000 0.000000 -2.342297 37.370996 -0.565250 13.965919 -32.881556 4.623822 -47.240544 23.930737 30.985619 11.713685 -38.909060 -17.469841 0.000000 0.000000 0.000000 0.000000 0.000000 0.000000 -6.676815 -21.302082 -8.376414 -10.238792 45.234110 15.395704 -10.855921 -23.351353 -0.675634 -38.613667 31.982994 11.882163 0.000000 0.000000 0.000000 0.000000 0.000000 0.000000 -42.437553 11.444720 31.678002 -4.497092 -27.756114 -14.802577 58.457963 16.350033 -59.408079 0.000000 0.000000 0.000000 9.524550 3.784703 17.467001 -10.778522 13.350643 6.161622 91.304827 21.849873 -52.972117 0.000000 0.000000 0.000000
54.716418 64.222630 375.815271 1.813491 -7.328878 -19.487700 -0.508210 0.356029 19.632502 0.073906 0.534918 0.039459 -45.322064 6.134550 13.049291 0.000000 0.000000 0.000000 -4.058095 32.565633 -0.031169 18.519879 -29.189715 4.915540 -45.633769 21.730808 28.076481 13.869291 -39.606309 -17.499081 0.000000 0.000000 0.000000 0.000000 0.000000 0.000000 -6.068827 -23.312138 -8.587997 -10.197575 45.206376 15.380282 -26.307375 -36.623759 -1.833191 2.373272 33.450254 -6.023626 0.000000 0.000000 0.000000 0.000000 0.000000 0.000000 -36.693426 16.231644 28.431878 -15.761811 -27.319576 -18.927511 63.679310 16.495345 -59.728928 0.000000 0.000000 0.000000 10.217675 -1.591503 14.111002 -11.904133 15.800562 6.990764 88.607953 24.014912 -54.518990 0.000000 0.000000 0.000000
57.747803 65.359338 375.834638 1.451911 -6.058445 -15.202393 -0.583933 0.405826 15.302196 -0.017968 0.519909 0.024870 -43.430234 6.175652 12.381381 0.000000 0.000000 0.000000 -6.373851 28.008670 0.339905 24.904045 -23.393701 4.379547 -47.136635 18.153314 26.215396 17.441534 -43.669183 -19.065877 0.000000 0.000000 0.000000 0.000000 0.000000 0.000000 -5.610885 -24.592949 -8.710337 -10.164276 45.185588 15.370848 -26.589189 -35.579482 -2.062361 17.840243 17.474098 -13.432045 0.000000 0.000000 0.000000 0.000000 0.000000 0.000000 -30.121496 22.780604 24.838588 -28.061539 -27.241844 -24.204581 68.144901 16.599201 -59.882328 0.000000 0.000000 0.000000 8.830670 -5.986551 10.292104 -11.658064 17.948023 7.425296 85.809127 25.806702 -54.758600 0.000000 0.000000 0.000000
61.270544 65.798518 376.137214 1.350593 -5.303480 -11.759205 -0.440296 0.448215 11.841290 0.009661 0.431488 0.028572 -39.458110 6.893941 11.403153 0.000000 0.000000 0.000000 -7.584838 27.778230 0.446435 28.040263 -24.412505 5.443336 -47.927997 19.366311 27.352797 19.305276 -46.868704 -20.300471 0.000000 0.000000 0.000000 0.000000 0.000000 0.000000 -5.719803 -25.243325 -8.786048 -7.626781 43.873361 13.365941 -13.710432 -31.177558 2.202598 18.093650 -20.845751 -10.868051 0.000000 0.000000 0.000000 0.000000 0.000000 0.000000 -23.779381 28.870166 21.545182 -39.352720 -26.734963 -29.662764 71.573148 18.294997 -60.051810 0.000000 0.000000 0.000000 6.706827 -8.826441 7.160286 -12.836266 19.945129 8.103055 86.846821 22.431439 -34.867020 0.000000 0.000000 0.000000
64.725131 66.052468 376.981671 1.509688 -5.662899 -9.862274 -0.297028 0.345670 9.958886 0.044720 0.250769 0.038752 -35.077384 9.467741 11.427623 0.000000 0.000000 0.000000 -6.273160 29.348165 0.293589 24.345769 -26.801797 5.516668 -39.892091 15.043426 19.608153 17.309726 -43.211632 -19.218866 0.000000 0.000000 0.000000 0.000000 0.000000 0.000000 -6.019248 -24.579491 -8.728469 -7.987579 44.316407 13.661454 7.347383 -19.762385 2.266120 5.960501 -21.899488 0.732636 0.000000 0.000000 0.000000 0.000000 0.000000 0.000000 -18.040826 32.786593 18.849051 -47.558528 -24.474404 -32.182461 73.693762 16.700008 -58.428287 0.000000 0.000000 0.000000 2.577709 -8.710315 5.936003 -12.096673 20.010339 7.529943 83.534462 19.845312 -20.182082 0.000000 0.000000 0.000000
67.857749 67.261839 377.850735 1.363543 -6.022926 -7.003440 0.007612 0.221997 7.086654 0.137592 -0.006912 0.045312 -36.133336 13.096889 13.885367 0.000000 0.000000 0.000000 -6.644301 29.780047 0.395590 24.148556 -27.661083 5.785041 -38.321232 12.353693 16.190537 18.264426 -44.538890 -19.990943 0.000000 0.000000 0.000000 0.000000 0.000000 0.000000 -6.228820 -23.796628 -8.648986 -11.218471 45.845946 16.269579 27.044921 -10.503238 -1.320942 -33.573181 -11.559383 2.272110 0.000000 0.000000 0.000000 0.000000 0.000000 0.000000 -8.557670 33.694288 12.920745 -54.784104 -20.242931 -31.163184 77.934293 13.080195 -62.124213 0.000000 0.000000 0.000000 -1.651899 -8.341326 3.789134 -8.599058 18.966823 6.035460 70.577521 19.761813 -18.716597 0.000000 0.000000 0.000000
71.296569 68.260575 378.950256 2.333153 -6.365850 -4.538819 -0.298207 0.603844 4.710972 0.480311 0.281483 0.079971 -40.314212 12.985400 15.018923 0.000000 0.000000 0.000000 -6.863964 28.923624 0.174610 22.557360 -28.299416 5.558071 -39.147695 9.660693 13.549382 18.527957 -45.836066 -20.890898 0.000000 0.000000 0.000000 0.000000 0.000000 0.000000 -7.304695 -24.142984 -8.723381 -16.435379 47.789692 20.549399 35.422909 -5.747613 -4.937967 -39.965794 -7.887408 3.091010 0.000000 0.000000 0.000000 0.000000 0.000000 0.000000 -1.623765 33.880401 7.884355 -59.485843 -17.241270 -29.627273 79.256729 2.302871 -59.307265 0.000000 0.000000 0.000000 -8.656390 -7.525060 2.657655 -1.271008 19.667556 3.909891 57.171639 22.076181 -23.955456 0.000000 0.000000 0.000000
73.805387 69.063475 379.759530 2.402247 -6.324518 -3.793229 -0.362651 0.294426 3.976521 -0.207991 0.287354 0.061719 -42.585638 13.964117 16.936651 0.000000 0.000000 0.000000 -6.330200 28.830906 0.247859 21.269027 -29.179888 5.660357 -34.002284 9.256263 10.903108 10.766227 -44.241548 -20.245287 0.000000 0.000000 0.000000 0.000000 0.000000 0.000000 -6.592715 -23.889669 -8.671851 -22.791792 49.581185 25.860746 40.583364 -3.274813 -7.187938 -43.025553 -7.896798 2.749890 0.000000 0.000000 0.000000 0.000000 0.000000 0.000000 5.148979 34.169656 4.869040 -62.001307 -16.743021 -28.908821 77.657621 -2.458045 -59.699118 0.000000 0.000000 0.000000 -13.174687 -6.839407 3.001505 5.029952 19.514412 2.062157 59.481936 34.169610 -51.417974 0.000000 0.000000 0.000000
76.005521 68.936850 380.410841 2.123530 -6.035147 -4.883298 -0.482474 -0.073392 5.043731 -0.521328 0.259307 0.037962 -45.269572 13.604777 18.235578 0.000000 0.000000 0.000000 -4.863219 28.549753 0.147242 20.529843 -29.311232 5.415507 -35.170201 4.179003 6.762847 14.295201 -44.802502 -20.481453 0.000000 0.000000 0.000000 0.000000 0.000000 0.000000 -5.867140 -23.808824 -8.642653 -29.317914 50.866622 31.392231 46.147918 -2.548712 -7.776391 -50.622334 -9.770652 0.323424 0.000000 0.000000 0.000000 0.000000 0.000000 0.000000 12.337029 33.449446 3.607961 -66.825015 -15.648809 -28.440385 76.909254 -9.238001 -56.981753 0.000000 0.000000 0.000000 -15.307173 -7.228861 4.549695 7.526171 20.117928 1.422528 62.483690 41.901556 -71.548324 0.000000 0.000000 0.000000
77.767374 68.710024 380.820914 1.268735 -5.652947 -9.272828 -0.469142 -0.295697 9.355402 -0.430488 0.220844 0.004305 -46.936254 13.340040 19.147881 0.000000 0.000000 0.000000 -3.720435 28.235934 0.094978 20.124342 -29.393726 5.297321 -31.707755 -2.313052 0.722823 15.763202 -39.147562 -16.991601 0.000000 0.000000 0.000000 0.000000 0.000000 0.000000 -5.104912 -23.974980 -8.639170 -35.029427 51.870144 36.301585 44.380645 0.892156 -10.834383 -47.312183 -15.481832 -0.854395 0.000000 0.000000 0.000000 0.000000 0.000000 0.000000 19.395812 33.744156 5.678593 -74.071217 -14.606771 -28.811601 76.733976 -16.049142 -50.689866 0.000000 0.000000 0.000000 -14.967364 -8.625171 8.903505 7.301667 20.962860 1.538051 76.464573 42.257719 -88.639277 0.000000 0.000000 0.000000
